<svg xmlns="http://www.w3.org/2000/svg" width="243.25" height="77.154" viewBox="0 0 243.25 77.154"><g transform="translate(-561.228 -1661.126)"><path d="M16.7,21.933H10.712L7.465,20.058V30.85H1.2V-1.39H6.368L7.465.485,10.712-1.39H16.7l5.3,3.064v17.2ZM7.465,3.96V16.582h8.277V3.96ZM34.172,21.7l-5.3-3.064V-11.68h6.265V16.353h4.573V21.7Zm9.649-2.835V-1.162h6.265V16.582h7.82V-1.162h6.265V21.933H59l-1.1-1.875L54.66,21.933H49.127ZM85.163,4.189H77.3V21.7H71.032V-1.162H76.2L77.3.713l3.247-1.875h4.619Zm9.924,8.506v3.979h6.448V12.695Zm-.96,9.238-5.3-3.064V10.957l5.3-3.064h7.409v-3.7H91.108V-1.162H102.5L107.8,1.9v20.03h-3.018l-3.247-1.875-3.247,1.875Zm25.838-.229-5.3-3.064V-11.68h6.265V16.353H125.5V21.7ZM135.88-1.162V21.7h-6.265V-1.162Zm-6.494-4.253V-11.68h6.723v6.265Zm11.524,9.6V-1.162h4.207V-5l6.265-3.613v7.454h5.03V4.189h-5.03V16.353h5.03V21.7h-5.991l-5.3-3.064V4.189ZM168.623,21.7h-6.265V-11.68h6.265V.485L171.87-1.39h5.991l5.3,3.064V21.7H176.9V3.96h-8.277Z" transform="translate(621.062 1693.178)" fill="#232f3e" stroke="#232f3e" stroke-width="0.5"/><path d="M15.039,77.154h0L0,62.333,9.808,0,25.064,11.551l10.68,36.833L15.04,77.153ZM14.55,12.322l-4.217,26.8L16.8,45.5l8.9-12.37L21.11,17.289Z" transform="translate(561.228 1661.126)" fill="#5e84fc"/></g></svg>